<svg width="64" height="64" viewBox="0 0 64 64" fill="none" xmlns="http://www.w3.org/2000/svg">
  <defs>
    <linearGradient id="anchorGradient" x1="0%" y1="0%" x2="100%" y2="100%">
      <stop offset="0%" style="stop-color:#9ca3af;stop-opacity:1" />
      <stop offset="100%" style="stop-color:#6b7280;stop-opacity:1" />
    </linearGradient>
  </defs>
  
  <!-- Anchor top ring -->
  <circle cx="32" cy="16" r="4" fill="none" stroke="url(#anchorGradient)" stroke-width="2"/>
  
  <!-- Main shaft -->
  <line x1="32" y1="20" x2="32" y2="48" stroke="url(#anchorGradient)" stroke-width="3"/>
  
  <!-- Cross bar -->
  <line x1="20" y1="30" x2="44" y2="30" stroke="url(#anchorGradient)" stroke-width="2"/>
  
  <!-- Left anchor arm -->
  <path d="M16 48 Q16 44 20 44 L32 48" fill="none" stroke="url(#anchorGradient)" stroke-width="2"/>
  <path d="M14 46 L20 40 L22 46 L16 48 Z" fill="url(#anchorGradient)"/>
  
  <!-- Right anchor arm -->
  <path d="M48 48 Q48 44 44 44 L32 48" fill="none" stroke="url(#anchorGradient)" stroke-width="2"/>
  <path d="M50 46 L44 40 L42 46 L48 48 Z" fill="url(#anchorGradient)"/>
  
  <!-- Anchor stock (horizontal bar ends) -->
  <circle cx="20" cy="30" r="2" fill="url(#anchorGradient)"/>
  <circle cx="44" cy="30" r="2" fill="url(#anchorGradient)"/>
  
  <!-- Chain link at top -->
  <rect x="30" y="8" width="4" height="6" rx="2" fill="none" stroke="#6b7280" stroke-width="1"/>
</svg>