<svg width="64" height="64" viewBox="0 0 64 64" fill="none" xmlns="http://www.w3.org/2000/svg">
  <defs>
    <linearGradient id="birdGradient" x1="0%" y1="0%" x2="100%" y2="100%">
      <stop offset="0%" style="stop-color:#9ca3af;stop-opacity:1" />
      <stop offset="100%" style="stop-color:#6b7280;stop-opacity:1" />
    </linearGradient>
  </defs>
  
  <!-- Bird body -->
  <ellipse cx="35" cy="35" rx="12" ry="8" fill="url(#birdGradient)"/>
  
  <!-- Bird head -->
  <circle cx="22" cy="28" r="7" fill="url(#birdGradient)"/>
  
  <!-- Beak -->
  <path d="M15 28 L10 26 L15 30 Z" fill="#4b5563"/>
  
  <!-- Eye -->
  <circle cx="20" cy="26" r="1.5" fill="#1f2937"/>
  
  <!-- Wing detail -->
  <path d="M35 30 Q45 28 50 35 Q45 40 35 38 Z" fill="#6b7280"/>
  
  <!-- Tail feathers -->
  <path d="M47 35 Q55 32 58 38 Q55 42 50 40 Z" fill="#6b7280"/>
  <path d="M47 37 Q54 36 56 42 Q54 44 50 42 Z" fill="#4b5563"/>
  
  <!-- Feet -->
  <line x1="28" y1="42" x2="26" y2="48" stroke="#4b5563" stroke-width="1.5"/>
  <line x1="32" y1="42" x2="30" y2="48" stroke="#4b5563" stroke-width="1.5"/>
  <line x1="36" y1="42" x2="38" y2="48" stroke="#4b5563" stroke-width="1.5"/>
  
  <!-- Small details -->
  <path d="M25 30 Q30 28 32 32" stroke="#4b5563" stroke-width="0.5" fill="none"/>
</svg>