<svg width="64" height="64" viewBox="0 0 64 64" fill="none" xmlns="http://www.w3.org/2000/svg">
  <defs>
    <linearGradient id="crownGradient" x1="0%" y1="0%" x2="100%" y2="100%">
      <stop offset="0%" style="stop-color:#9ca3af;stop-opacity:1" />
      <stop offset="100%" style="stop-color:#6b7280;stop-opacity:1" />
    </linearGradient>
  </defs>
  
  <!-- Crown base -->
  <rect x="14" y="42" width="36" height="6" rx="1" fill="url(#crownGradient)"/>
  
  <!-- Crown points -->
  <path d="M14 42 L18 26 L22 38 L26 22 L30 36 L32 18 L34 36 L38 22 L42 38 L46 26 L50 42 Z" 
        fill="url(#crownGradient)"/>
  
  <!-- Crown band highlight -->
  <rect x="14" y="42" width="36" height="2" fill="#d1d5db" opacity="0.6"/>
  
  <!-- Decorative gems -->
  <circle cx="20" cy="32" r="1.5" fill="#ef4444" opacity="0.7"/>
  <circle cx="32" cy="28" r="2" fill="#3b82f6" opacity="0.7"/>
  <circle cx="44" cy="32" r="1.5" fill="#10b981" opacity="0.7"/>
  
  <!-- Crown details -->
  <line x1="18" y1="42" x2="18" y2="26" stroke="#4b5563" stroke-width="0.5"/>
  <line x1="26" y1="42" x2="26" y2="22" stroke="#4b5563" stroke-width="0.5"/>
  <line x1="32" y1="42" x2="32" y2="18" stroke="#4b5563" stroke-width="0.5"/>
  <line x1="38" y1="42" x2="38" y2="22" stroke="#4b5563" stroke-width="0.5"/>
  <line x1="46" y1="42" x2="46" y2="26" stroke="#4b5563" stroke-width="0.5"/>
</svg>