<svg width="64" height="64" viewBox="0 0 64 64" fill="none" xmlns="http://www.w3.org/2000/svg">
  <defs>
    <linearGradient id="starGradient" x1="0%" y1="0%" x2="100%" y2="100%">
      <stop offset="0%" style="stop-color:#9ca3af;stop-opacity:1" />
      <stop offset="100%" style="stop-color:#6b7280;stop-opacity:1" />
    </linearGradient>
  </defs>
  
  <!-- Star shape -->
  <path d="M32 8 L36 24 L52 24 L40 34 L44 50 L32 40 L20 50 L24 34 L12 24 L28 24 Z" 
        fill="url(#starGradient)" 
        stroke="#4b5563" 
        stroke-width="1"/>
  
  <!-- Inner star highlight -->
  <path d="M32 14 L34 22 L42 22 L36 27 L38 35 L32 30 L26 35 L28 27 L22 22 L30 22 Z" 
        fill="#d1d5db" 
        opacity="0.5"/>
  
  <!-- Center detail -->
  <circle cx="32" cy="28" r="2" fill="#4b5563"/>
  
  <!-- Small decorative dots -->
  <circle cx="20" cy="16" r="0.8" fill="#6b7280" opacity="0.6"/>
  <circle cx="44" cy="16" r="0.8" fill="#6b7280" opacity="0.6"/>
  <circle cx="16" cy="40" r="0.8" fill="#6b7280" opacity="0.6"/>
  <circle cx="48" cy="40" r="0.8" fill="#6b7280" opacity="0.6"/>
</svg>